<svg width="32" height="32" viewBox="0 0 32 32" fill="none" xmlns="http://www.w3.org/2000/svg">
<g opacity="0.7">
<path d="M10.3333 3.33331C10.3333 3.0681 10.228 2.81374 10.0404 2.62621C9.85291 2.43867 9.59855 2.33331 9.33334 2.33331C9.06812 2.33331 8.81377 2.43867 8.62623 2.62621C8.43869 2.81374 8.33334 3.0681 8.33334 3.33331V5.43998C6.41334 5.59331 5.15467 5.96931 4.22934 6.89598C3.30267 7.82131 2.92667 9.08131 2.772 11H29.228C29.0733 9.07998 28.6973 7.82131 27.7707 6.89598C26.8453 5.96931 25.5853 5.59331 23.6667 5.43865V3.33331C23.6667 3.0681 23.5613 2.81374 23.3738 2.62621C23.1862 2.43867 22.9319 2.33331 22.6667 2.33331C22.4015 2.33331 22.1471 2.43867 21.9596 2.62621C21.772 2.81374 21.6667 3.0681 21.6667 3.33331V5.35065C20.78 5.33331 19.7853 5.33331 18.6667 5.33331H13.3333C12.2147 5.33331 11.22 5.33331 10.3333 5.35065V3.33331Z" fill="black"/>
<path fill-rule="evenodd" clip-rule="evenodd" d="M2.66667 16C2.66667 14.8813 2.66667 13.8867 2.68401 13H29.316C29.3333 13.8867 29.3333 14.8813 29.3333 16V18.6667C29.3333 23.6947 29.3333 26.2093 27.7707 27.7707C26.208 29.332 23.6947 29.3333 18.6667 29.3333H13.3333C8.30534 29.3333 5.79067 29.3333 4.22934 27.7707C2.668 26.208 2.66667 23.6947 2.66667 18.6667V16ZM22.6667 18.6667C23.0203 18.6667 23.3594 18.5262 23.6095 18.2761C23.8595 18.0261 24 17.687 24 17.3333C24 16.9797 23.8595 16.6406 23.6095 16.3905C23.3594 16.1405 23.0203 16 22.6667 16C22.313 16 21.9739 16.1405 21.7239 16.3905C21.4738 16.6406 21.3333 16.9797 21.3333 17.3333C21.3333 17.687 21.4738 18.0261 21.7239 18.2761C21.9739 18.5262 22.313 18.6667 22.6667 18.6667ZM22.6667 24C23.0203 24 23.3594 23.8595 23.6095 23.6095C23.8595 23.3594 24 23.0203 24 22.6667C24 22.313 23.8595 21.9739 23.6095 21.7239C23.3594 21.4738 23.0203 21.3333 22.6667 21.3333C22.313 21.3333 21.9739 21.4738 21.7239 21.7239C21.4738 21.9739 21.3333 22.313 21.3333 22.6667C21.3333 23.0203 21.4738 23.3594 21.7239 23.6095C21.9739 23.8595 22.313 24 22.6667 24ZM17.3333 17.3333C17.3333 17.687 17.1929 18.0261 16.9428 18.2761C16.6928 18.5262 16.3536 18.6667 16 18.6667C15.6464 18.6667 15.3072 18.5262 15.0572 18.2761C14.8071 18.0261 14.6667 17.687 14.6667 17.3333C14.6667 16.9797 14.8071 16.6406 15.0572 16.3905C15.3072 16.1405 15.6464 16 16 16C16.3536 16 16.6928 16.1405 16.9428 16.3905C17.1929 16.6406 17.3333 16.9797 17.3333 17.3333ZM17.3333 22.6667C17.3333 23.0203 17.1929 23.3594 16.9428 23.6095C16.6928 23.8595 16.3536 24 16 24C15.6464 24 15.3072 23.8595 15.0572 23.6095C14.8071 23.3594 14.6667 23.0203 14.6667 22.6667C14.6667 22.313 14.8071 21.9739 15.0572 21.7239C15.3072 21.4738 15.6464 21.3333 16 21.3333C16.3536 21.3333 16.6928 21.4738 16.9428 21.7239C17.1929 21.9739 17.3333 22.313 17.3333 22.6667ZM9.33334 18.6667C9.68696 18.6667 10.0261 18.5262 10.2761 18.2761C10.5262 18.0261 10.6667 17.687 10.6667 17.3333C10.6667 16.9797 10.5262 16.6406 10.2761 16.3905C10.0261 16.1405 9.68696 16 9.33334 16C8.97972 16 8.64058 16.1405 8.39053 16.3905C8.14048 16.6406 8 16.9797 8 17.3333C8 17.687 8.14048 18.0261 8.39053 18.2761C8.64058 18.5262 8.97972 18.6667 9.33334 18.6667ZM9.33334 24C9.68696 24 10.0261 23.8595 10.2761 23.6095C10.5262 23.3594 10.6667 23.0203 10.6667 22.6667C10.6667 22.313 10.5262 21.9739 10.2761 21.7239C10.0261 21.4738 9.68696 21.3333 9.33334 21.3333C8.97972 21.3333 8.64058 21.4738 8.39053 21.7239C8.14048 21.9739 8 22.313 8 22.6667C8 23.0203 8.14048 23.3594 8.39053 23.6095C8.64058 23.8595 8.97972 24 9.33334 24Z" fill="black"/>
</g>
</svg>
