<svg width="24" height="30" viewBox="0 0 24 30" fill="none" xmlns="http://www.w3.org/2000/svg">
<path fill-rule="evenodd" clip-rule="evenodd" d="M12 0.666687C15.1826 0.666687 18.2348 1.93097 20.4853 4.18141C22.7357 6.43184 24 9.48409 24 12.6667C24 16.7654 21.7653 20.12 19.4107 22.5267C18.2342 23.7161 16.9506 24.7945 15.576 25.748L15.008 26.1347L14.7413 26.312L14.2387 26.632L13.7907 26.9054L13.236 27.228C12.8595 27.4429 12.4335 27.5559 12 27.5559C11.5665 27.5559 11.1405 27.4429 10.764 27.228L10.2093 26.9054L9.516 26.4787L9.26 26.312L8.71333 25.948C7.23044 24.9447 5.8492 23.7988 4.58933 22.5267C2.23467 20.1187 0 16.7654 0 12.6667C0 9.48409 1.26428 6.43184 3.51472 4.18141C5.76515 1.93097 8.8174 0.666687 12 0.666687ZM12 3.33335C9.52465 3.33335 7.15068 4.31668 5.40034 6.06702C3.65 7.81736 2.66667 10.1913 2.66667 12.6667C2.66667 15.7627 4.36267 18.48 6.49467 20.6614C7.41137 21.5893 8.40221 22.4411 9.45733 23.208L10.068 23.6427C10.2653 23.7805 10.4551 23.9085 10.6373 24.0267L11.1573 24.36L11.6147 24.6387L12 24.864L12.6067 24.5054L13.096 24.1987C13.3564 24.0334 13.6351 23.848 13.932 23.6427L14.5427 23.208C15.5978 22.4411 16.5886 21.5893 17.5053 20.6614C19.6373 18.4814 21.3333 15.7627 21.3333 12.6667C21.3333 10.1913 20.35 7.81736 18.5997 6.06702C16.8493 4.31668 14.4754 3.33335 12 3.33335ZM12 7.33335C13.4145 7.33335 14.771 7.89526 15.7712 8.89545C16.7714 9.89565 17.3333 11.2522 17.3333 12.6667C17.3333 14.0812 16.7714 15.4377 15.7712 16.4379C14.771 17.4381 13.4145 18 12 18C10.5855 18 9.22896 17.4381 8.22876 16.4379C7.22857 15.4377 6.66667 14.0812 6.66667 12.6667C6.66667 11.2522 7.22857 9.89565 8.22876 8.89545C9.22896 7.89526 10.5855 7.33335 12 7.33335ZM12 10C11.2928 10 10.6145 10.281 10.1144 10.7811C9.61429 11.2812 9.33333 11.9594 9.33333 12.6667C9.33333 13.3739 9.61429 14.0522 10.1144 14.5523C10.6145 15.0524 11.2928 15.3334 12 15.3334C12.7072 15.3334 13.3855 15.0524 13.8856 14.5523C14.3857 14.0522 14.6667 13.3739 14.6667 12.6667C14.6667 11.9594 14.3857 11.2812 13.8856 10.7811C13.3855 10.281 12.7072 10 12 10Z" fill="black"/>
</svg>
